HIERARCHY
ROOT Hips
{
 OFFSET 0.000000 0.000000 0.000000
 CHANNELS 6 Xposition Yposition Zposition Yrotation Xrotation Zrotation
 JOINT Chest
 {
  OFFSET 0.000000 11.395451 -0.039534
  CHANNELS 3 Yrotation Xrotation Zrotation
  JOINT Chest2
  {
   OFFSET 0.000000 9.398669 0.071813
   CHANNELS 3 Yrotation Xrotation Zrotation
   JOINT Chest3
   {
    OFFSET 0.000000 8.489801 0.000000
    CHANNELS 3 Yrotation Xrotation Zrotation
    JOINT Chest4
    {
     OFFSET 0.000000 8.489801 0.000000
     CHANNELS 3 Yrotation Xrotation Zrotation
     JOINT Neck
     {
      OFFSET 0.000000 12.404889 0.000000
      CHANNELS 3 Yrotation Xrotation Zrotation
      JOINT Head
      {
       OFFSET 0.000000 8.903270 0.092239
       CHANNELS 3 Yrotation Xrotation Zrotation
       End Site
       {
        OFFSET 0.000000 17.592497 0.007158
       }
      }
     }
     JOINT RightCollar
     {
      OFFSET -3.196775 6.966722 0.000000
      CHANNELS 3 Yrotation Xrotation Zrotation
      JOINT RightShoulder
      {
       OFFSET -15.955896 0.000000 0.000000
       CHANNELS 3 Yrotation Xrotation Zrotation
       JOINT RightElbow
       {
        OFFSET -24.792472 0.000000 0.000000
        CHANNELS 3 Yrotation Xrotation Zrotation
        JOINT RightWrist
        {
         OFFSET -20.900115 0.000000 0.025002
         CHANNELS 3 Yrotation Xrotation Zrotation
         End Site
         {
          OFFSET -16.056692 0.000000 0.000000
         }
        }
       }
      }
     }
     JOINT LeftCollar
     {
      OFFSET 3.196775 6.966722 0.000000
      CHANNELS 3 Yrotation Xrotation Zrotation
      JOINT LeftShoulder
      {
       OFFSET 15.955896 0.000000 0.000000
       CHANNELS 3 Yrotation Xrotation Zrotation
       JOINT LeftElbow
       {
        OFFSET 24.792472 0.000000 0.000000
        CHANNELS 3 Yrotation Xrotation Zrotation
        JOINT LeftWrist
        {
         OFFSET 20.900115 0.000000 0.025002
         CHANNELS 3 Yrotation Xrotation Zrotation
         End Site
         {
          OFFSET 16.056692 0.000000 0.000000
         }
        }
       }
      }
     }
    }
   }
  }
 }
 JOINT RightHip
 {
  OFFSET -9.568995 0.193718 0.019767
  CHANNELS 3 Yrotation Xrotation Zrotation
  JOINT RightKnee
  {
   OFFSET 0.000000 -56.649296 0.015402
   CHANNELS 3 Yrotation Xrotation Zrotation
   JOINT RightAnkle
   {
    OFFSET 0.000000 -41.365147 0.021264
    CHANNELS 3 Yrotation Xrotation Zrotation
    JOINT RightToe
    {
     OFFSET 0.000000 -7.465940 17.672538
     CHANNELS 3 Yrotation Xrotation Zrotation
     End Site
     {
      OFFSET 0.000000 -1.736315 7.837145
     }
    }
   }
  }
 }
 JOINT LeftHip
 {
  OFFSET 9.568995 0.193718 0.019767
  CHANNELS 3 Yrotation Xrotation Zrotation
  JOINT LeftKnee
  {
   OFFSET 0.000000 -56.649296 0.015402
   CHANNELS 3 Yrotation Xrotation Zrotation
   JOINT LeftAnkle
   {
    OFFSET 0.000000 -41.365147 0.021264
    CHANNELS 3 Yrotation Xrotation Zrotation
    JOINT LeftToe
    {
     OFFSET 0.000000 -7.465940 17.672538
     CHANNELS 3 Yrotation Xrotation Zrotation
     End Site
     {
      OFFSET 0.000000 -1.736315 7.837145
     }
    }
   }
  }
 }
}
MOTION
Frames: 5
Frame Time: 0.016667
74.433222 105.615603 390.224734 129.825292 3.489331 3.521446 -2.125461 4.606083 0.164507 -0.945512 2.046392 0.094169 -0.945520 2.046399 0.094171 -0.709386 1.534662 0.073790 8.558430 12.462688 -4.023323 17.920486 -11.873216 -11.147811 2.092996 0.873540 5.417752 10.043891 -15.286528 41.333475 56.535902 -45.560384 25.157625 -14.598555 -17.005803 6.799044 3.509044 8.013769 -4.974211 2.298630 -23.363772 -51.903622 -22.452965 -54.785006 -60.835831 15.250026 -19.627316 7.486676 -20.587368 -14.243448 -8.740098 -3.463505 17.435784 -2.444953 -1.891990 -9.022908 7.697950 0.000000 0.000000 0.000000 9.970850 -23.476858 1.317792 -0.879708 43.679331 -2.357202 4.708788 -13.936529 -2.889026 0.000000 -0.000000 -0.000000
74.713265 105.699243 390.441258 131.956856 3.758001 3.474120 -2.060436 4.598583 0.208596 -0.917059 2.042876 0.113065 -0.917059 2.042876 0.113065 -0.688099 1.531991 0.087856 8.465349 12.453661 -3.992204 17.734037 -11.912585 -11.054951 2.077514 0.900110 5.420870 9.979624 -15.563041 41.388559 56.491242 -45.492230 25.119659 -14.679357 -16.947501 6.913587 3.538594 7.990557 -4.984780 2.388208 -23.332426 -52.089784 -22.665073 -54.819346 -60.765097 15.220653 -19.594748 7.543634 -20.907139 -13.785032 -8.665626 -4.449478 17.047160 -2.355780 -2.843178 -9.071989 7.547369 0.000000 0.000000 0.000000 9.699311 -24.118757 1.521436 1.071711 41.560466 -2.055434 4.972967 -13.589028 -2.956701 0.000000 0.000000 0.000000
74.998360 105.767853 390.578737 134.027960 4.033897 3.399581 -1.988133 4.568180 0.253895 -0.885371 2.029205 0.132331 -0.885357 2.029206 0.132328 -0.664378 1.521717 0.102175 8.383582 12.426123 -3.946245 17.566351 -11.986373 -10.941731 2.048511 0.932874 5.425143 10.088836 -15.727595 41.410470 56.388024 -45.485166 25.010113 -14.706325 -16.912995 7.036046 3.572193 7.978862 -4.987435 2.548249 -23.281292 -52.226442 -22.838559 -54.799467 -60.803528 15.175676 -19.572742 7.620680 -21.327850 -13.322842 -8.570796 -5.264054 16.636996 -2.197343 -3.779538 -9.121716 7.412491 -0.000000 0.000000 -0.000000 9.710847 -24.594430 1.550030 2.792293 39.235974 -1.782253 5.297941 -13.317706 -2.805431 0.000000 -0.000000 -0.000000
75.285256 105.823361 390.648865 136.025107 4.309103 3.297338 -1.898955 4.524799 0.297697 -0.846187 2.009779 0.150729 -0.846174 2.009768 0.150728 -0.635053 1.507114 0.115817 8.301526 12.379138 -3.887824 17.396445 -12.098059 -10.808476 2.015380 0.979196 5.434553 10.309481 -15.826409 41.424026 56.242675 -45.514985 24.848776 -14.697383 -16.890450 7.167204 3.606217 7.970351 -4.979126 2.744347 -23.210210 -52.319591 -22.984509 -54.753903 -60.912711 15.120936 -19.557984 7.718605 -21.782360 -12.843624 -8.457844 -5.967983 16.202157 -1.996422 -4.708265 -9.162322 7.290018 0.000000 0.000000 0.000000 9.889002 -24.918904 1.486317 4.456042 36.659289 -1.524354 5.637784 -13.069635 -2.544951 0.000000 0.000000 0.000000
75.564036 105.859128 390.654573 137.903282 4.562525 3.168411 -1.780884 4.488139 0.337696 -0.794147 1.993424 0.167203 -0.794147 1.993424 0.167203 -0.596096 1.494854 0.127981 8.230952 12.324076 -3.838711 17.253084 -12.220686 -10.698676 1.992215 1.046896 5.442916 10.572926 -15.944314 41.430811 56.061306 -45.535643 24.735527 -14.689173 -16.877032 7.275518 3.631059 7.956346 -4.965998 2.937700 -23.112779 -52.356394 -23.067908 -54.734886 -61.070673 15.055036 -19.562085 7.841503 -22.178725 -12.340980 -8.340999 -6.686604 15.774014 -1.803227 -5.574608 -9.191695 7.186748 0.000000 0.000000 0.000000 10.446761 -25.142185 1.265105 5.706114 34.050644 -1.401680 6.202152 -12.778291 -2.409505 0.000000 0.000000 0.000000
